<?xml version="1.0" encoding="UTF-8" standalone="no"?>
<!-- Created with Inkscape (http://www.inkscape.org/) -->

<svg
        width="200mm"
        height="200mm"
        viewBox="0 0 200 200"
        version="1.1"
        id="svg5"
        xmlns="http://www.w3.org/2000/svg"
>
  <defs
          id="defs2"/>
  <path
          id="rect1295"
          style="display:inline;fill:#2196f3;fill-opacity:1;stroke:none;stroke-width:2.9647;stroke-miterlimit:4;stroke-dasharray:none"
          d="M 148.47958,169.2246 196.5079,43.461093 47.503361,0 179.16657,53.871878 139.58153,166.80436 M 33.075925,144.29168 30.096432,148.26321 157.12104,194.94839 200,45.432954 151.77295,175.64204 Z M 43.50322,3.779931 0,154.26064 49.587777,23.580198 168.91084,64.479846 171.75258,56.923611 Z M 52.447306,30.105065 4.2835158,155.95892 155.32117,200 22.075591,150.13892 62.193086,33.915796 Z"/>
  <path
          id="path1086"
          style="display:inline;opacity:1;fill:#2196f3;fill-opacity:1;stroke:none;stroke-width:3.359;stroke-miterlimit:4;stroke-dasharray:none;stroke-opacity:0.0580475"
          d="m 30.88712,99.472681 94.94615,-30.329821 -10.31952,60.95816 6.80135,4.82345 16.09672,-88.426859 z m 1.460243,3.075359 105.589137,72.58635 -80.935471,-67.84816 61.707451,-21.17983 1.62649,-9.301135 z m 35.591361,7.87018 64.932076,53.33476 9.64885,-116.665472 -17.51486,96.375832 -47.762298,-36.12718 z"/>
</svg>
