<?xml version="1.0" encoding="UTF-8"?>
<!-- Created with Inkscape (http://www.inkscape.org/) -->
<svg width="200mm" height="200mm" version="1.1" viewBox="0 0 200 200" xmlns="http://www.w3.org/2000/svg">
 <path d="m148.48 169.22 48.028-125.76-149-43.461 131.66 53.872-39.585 112.93m-106.51-22.513-2.9795 3.9715 127.02 46.685 42.879-149.52-48.227 130.21zm10.427-140.51-43.503 150.48 49.588-130.68 119.32 40.9 2.8417-7.5562zm8.9441 26.325-48.164 125.85 151.04 44.041-133.25-49.861 40.117-116.22z" fill="#2196f3"/>
 <path d="m30.887 99.473 94.946-30.33-10.32 60.958 6.8014 4.8234 16.097-88.427zm1.4602 3.0754 105.59 72.586-80.935-67.848 61.707-21.18 1.6265-9.3011zm35.591 7.8702 64.932 53.335 9.6488-116.67-17.515 96.376-47.762-36.127z" fill="#2196f3"/>
</svg>
